<svg width="112" height="112" viewBox="0 0 112 112" fill="none" xmlns="http://www.w3.org/2000/svg">
<path d="M9.33337 56C9.33337 30.226 30.226 9.33337 56 9.33337C81.774 9.33337 102.667 30.226 102.667 56C102.667 81.774 81.774 102.667 56 102.667C30.226 102.667 9.33337 81.774 9.33337 56ZM50.6614 38.0567C49.7734 37.5645 48.7724 37.3126 47.7573 37.3259C46.7422 37.3391 45.7481 37.617 44.8733 38.1322C43.9985 38.6474 43.2733 39.3819 42.7694 40.2633C42.2654 41.1446 42.0003 42.1422 42 43.1574V68.8427C42.0003 69.8579 42.2654 70.8555 42.7694 71.7368C43.2733 72.6182 43.9985 73.3527 44.8733 73.8679C45.7481 74.3831 46.7422 74.661 47.7573 74.6742C48.7724 74.6875 49.7734 74.4356 50.6614 73.9434L77.5274 59.0614C78.0739 58.7585 78.5293 58.3149 78.8465 57.7766C79.1636 57.2382 79.3308 56.6248 79.3308 56C79.3308 55.3752 79.1636 54.7618 78.8465 54.2235C78.5293 53.6852 78.0739 53.2416 77.5274 52.9387L50.6614 38.0567Z" fill="#F6F4FF"/>
</svg>
